<svg width="84" height="20" viewBox="0 0 84 20" fill="none" xmlns="http://www.w3.org/2000/svg">
<path d="M17.3227 11.2348C16.9507 11.7787 16.4192 12.095 15.8044 12.2925C15.6698 12.3359 15.5378 12.3838 15.4085 12.4351C14.5909 12.762 13.892 13.2598 13.3658 14.0022C12.8963 14.6657 12.6394 15.4009 12.573 16.1928C12.5633 16.3035 12.5579 16.416 12.5562 16.5285C12.5411 17.4764 12.1567 18.2072 11.3293 18.6758C11.0999 18.806 10.8271 18.8574 10.5737 18.9442C10.5348 18.9575 10.4967 18.9699 10.4577 18.9832C10.362 18.9947 10.2655 19 10.1663 19C10.0794 19 9.99441 18.9956 9.91026 18.9867C9.85534 18.9699 9.79953 18.9504 9.74284 18.9415C8.70378 18.7794 7.89149 17.9131 7.75154 16.8731C7.74799 16.8483 7.74533 16.8235 7.74268 16.7987C7.74002 16.7739 7.73825 16.7491 7.73647 16.7243C7.7347 16.6995 7.73293 16.6747 7.73293 16.6499C7.6975 15.586 8.42298 14.5505 9.47887 14.267C9.6082 14.2325 9.73575 14.1935 9.85977 14.1501C10.6907 13.8631 11.4099 13.3847 11.9485 12.6486C13.7334 10.2073 12.7271 6.93238 10.0139 5.89242C9.98378 5.88091 9.95366 5.86939 9.92354 5.85787C9.59579 5.73563 9.26184 5.62313 8.95712 5.45748C7.79405 4.82323 7.45213 3.38642 8.00931 2.30393C8.01728 2.28799 8.02613 2.27205 8.03499 2.2561C8.04119 2.24459 8.0474 2.23396 8.0536 2.22333C8.14572 2.06388 8.25467 1.91595 8.37869 1.7813C8.46993 1.68474 8.57003 1.59439 8.68075 1.51112C8.86943 1.36939 9.09177 1.27195 9.30171 1.15767C9.57011 1.0558 9.86065 1 10.1654 1C10.4701 1 10.7651 1.05669 11.0344 1.15945C11.0919 1.19311 11.1504 1.225 11.2097 1.25335C11.5251 1.40748 11.7855 1.59882 11.991 1.8247C12.1505 2.00541 12.2842 2.21004 12.3843 2.43238C12.3888 2.44124 12.3923 2.45098 12.3967 2.45984C12.5092 2.72736 12.5757 3.025 12.5978 3.35187C12.5978 3.35364 12.5978 3.35541 12.5978 3.35718C12.6394 3.96309 12.7236 4.55748 12.9663 5.12175C13.4092 6.15462 14.148 6.89518 15.1675 7.35226C15.3952 7.45413 15.6335 7.53209 15.8682 7.61624C16.0418 7.67825 16.2128 7.74469 16.3758 7.82707C17.8179 8.55699 18.0075 10.2268 17.3201 11.2331L17.3227 11.2348Z" fill="white" stroke="black" stroke-width="0.3"/>
<path d="M9.50532 12.2836C9.44065 12.2986 9.37687 12.3146 9.31309 12.3314C8.53447 12.536 7.82227 12.87 7.22612 13.429C6.55911 14.0543 6.17289 14.8356 5.98776 15.7232C5.94258 15.9403 5.90538 16.1591 5.86374 16.377C5.823 16.5922 5.77694 16.8066 5.71316 17.0157C5.68924 17.0954 5.6609 17.1725 5.62812 17.2469C5.62812 17.2478 5.62812 17.2486 5.62723 17.2495C5.24102 18.0441 4.43582 18.5969 3.49863 18.6208C3.48003 18.6208 3.46054 18.6217 3.44105 18.6217H3.43485C3.4065 18.6217 3.37816 18.6217 3.34981 18.6199C3.32678 18.619 3.30375 18.6181 3.28072 18.6164C3.27541 18.6164 3.27098 18.6164 3.26655 18.6155C3.18505 18.6093 3.10356 18.6004 3.02295 18.5862C2.72 18.5349 2.42503 18.425 2.15928 18.2541C1.50644 17.8351 1.13971 17.2398 1.05113 16.47C1.04493 16.416 1.02013 16.3637 1.0033 16.3105C1.00064 16.2698 0.999756 16.2291 0.999756 16.1874C0.999756 16.1458 1.00064 16.1041 1.0033 16.0625C1.03607 15.9234 1.06531 15.7826 1.10162 15.6444C1.34611 14.7223 1.93163 14.1341 2.85819 13.91C3.04864 13.8639 3.23643 13.8125 3.42068 13.7532C3.97785 13.5742 4.50137 13.3262 4.96288 12.9471C5.86286 12.2074 6.39523 11.2551 6.55202 10.0956C6.56176 10.0221 6.57062 9.94765 6.57859 9.87413C6.61137 9.57826 6.64149 9.28328 6.76462 8.99982C7.17121 8.06438 8.03221 7.501 9.05355 7.52934C10.167 7.55946 11.0741 8.29116 11.3221 9.35946C11.6348 10.7041 10.8526 11.9709 9.50532 12.2853V12.2836Z" fill="white" stroke="black" stroke-width="0.3"/>
<path d="M28.9136 10.0872C29.8836 10.6461 30.369 11.4903 30.369 12.618C30.369 13.5569 30.0368 14.3267 29.3724 14.9273C28.7081 15.5288 27.8905 15.8291 26.9205 15.8291H22.2222V4.75537H26.5883C27.5379 4.75537 28.336 5.04769 28.9853 5.63322C29.6338 6.21876 29.958 6.96462 29.958 7.87171C29.958 8.7788 29.6098 9.52732 28.9136 10.0863V10.0872ZM26.5883 6.79631H24.4057V9.23234H26.5883C26.9258 9.23234 27.2075 9.1163 27.4343 8.88421C27.6611 8.65212 27.7744 8.36246 27.7744 8.01433C27.7744 7.6662 27.6637 7.37653 27.4423 7.14444C27.2208 6.91236 26.9365 6.79631 26.5883 6.79631ZM26.9205 13.7881C27.2899 13.7881 27.5955 13.6641 27.8382 13.4161C28.0809 13.1681 28.2023 12.8545 28.2023 12.4745C28.2023 12.0944 28.0809 11.7968 27.8382 11.5488C27.5955 11.3007 27.2899 11.1767 26.9205 11.1767H24.4057V13.7873H26.9205V13.7881Z" fill="white" stroke="black" stroke-width="0.3"/>
<path d="M31.303 15.8288V4.28027H33.3439V15.8288H31.303Z" fill="white" stroke="black" stroke-width="0.3"/>
<path d="M35.8258 6.96985C35.4883 6.96985 35.1951 6.84584 34.948 6.5978C34.6999 6.34977 34.5759 6.05745 34.5759 5.71995C34.5759 5.38245 34.6999 5.08747 34.948 4.83412C35.196 4.58077 35.4883 4.4541 35.8258 4.4541C36.1633 4.4541 36.4716 4.58077 36.7196 4.83412C36.9676 5.08747 37.0916 5.38245 37.0916 5.71995C37.0916 6.05745 36.9676 6.35066 36.7196 6.5978C36.4716 6.84584 36.1739 6.96985 35.8258 6.96985ZM34.8133 15.829V7.91946H36.8542V15.829H34.8133Z" fill="white" stroke="black" stroke-width="0.3"/>
<path d="M42.7239 7.69775C43.5884 7.69775 44.3033 7.98831 44.8676 8.56764C45.4318 9.14785 45.7135 9.94953 45.7135 10.9718V15.8288H43.6726V11.2251C43.6726 10.6981 43.53 10.2941 43.2456 10.0151C42.9613 9.73604 42.5813 9.59608 42.1065 9.59608C41.5794 9.59608 41.1578 9.75996 40.8407 10.0868C40.5244 10.4137 40.3659 10.9044 40.3659 11.5582V15.8296H38.325V7.9201H40.3659V8.80592C40.861 8.06803 41.6476 7.69864 42.723 7.69864L42.7239 7.69775Z" fill="white" stroke="black" stroke-width="0.3"/>
<path d="M53.0536 7.9189H55.0945V18.9926H53.0536V14.8957C52.4522 15.6655 51.5982 16.0508 50.491 16.0508C49.3837 16.0508 48.5165 15.6477 47.7618 14.8408C47.008 14.0338 46.6306 13.0452 46.6306 11.875C46.6306 10.7048 47.008 9.71536 47.7618 8.90926C48.5156 8.10227 49.4253 7.69922 50.491 7.69922C51.5566 7.69922 52.4522 8.08455 53.0536 8.85433V7.92068V7.9189ZM49.296 13.4792C49.7124 13.8956 50.2376 14.1037 50.8701 14.1037C51.5026 14.1037 52.0252 13.8956 52.4362 13.4792C52.8472 13.0629 53.0527 12.5279 53.0527 11.8732C53.0527 11.2186 52.8472 10.6845 52.4362 10.2672C52.0252 9.85089 51.5026 9.64272 50.8701 9.64272C50.2376 9.64272 49.7124 9.85089 49.296 10.2672C48.8797 10.6836 48.6715 11.2195 48.6715 11.8732C48.6715 12.527 48.8797 13.062 49.296 13.4792Z" fill="white" stroke="black" stroke-width="0.3"/>
<path d="M61.1673 7.69757C62.232 7.69757 63.1417 8.10063 63.8965 8.90762C64.6503 9.71461 65.0276 10.7032 65.0276 11.8734C65.0276 13.0435 64.6503 14.033 63.8965 14.8391C63.1426 15.6461 62.2329 16.0492 61.1673 16.0492C60.1016 16.0492 59.2061 15.6647 58.6046 14.894V18.991H56.5637V7.91726H58.6046V8.85092C59.2061 8.08114 60.06 7.6958 61.1673 7.6958V7.69757ZM59.2212 13.4794C59.6322 13.8957 60.1548 14.1039 60.7873 14.1039C61.4197 14.1039 61.9441 13.8957 62.3614 13.4794C62.7777 13.063 62.9859 12.528 62.9859 11.8734C62.9859 11.2187 62.7777 10.6846 62.3614 10.2674C61.945 9.85102 61.4197 9.64285 60.7873 9.64285C60.1548 9.64285 59.6322 9.85102 59.2212 10.2674C58.8101 10.6837 58.6046 11.2196 58.6046 11.8734C58.6046 12.5271 58.8101 13.0621 59.2212 13.4794Z" fill="white" stroke="black" stroke-width="0.3"/>
<path d="M72.0829 7.9193H74.1238V15.8289H72.0829V14.8952C71.4708 15.665 70.6116 16.0503 69.5043 16.0503C68.3971 16.0503 67.5449 15.6473 66.7911 14.8403C66.0373 14.0333 65.6599 13.0447 65.6599 11.8745C65.6599 10.7043 66.0373 9.71487 66.7911 8.90877C67.5449 8.10178 68.4493 7.69873 69.5043 7.69873C70.6116 7.69873 71.4708 8.08406 72.0829 8.85385V7.92019V7.9193ZM68.3182 13.4796C68.7292 13.896 69.2519 14.1041 69.8844 14.1041C70.5168 14.1041 71.0412 13.896 71.4584 13.4796C71.8748 13.0633 72.0829 12.5283 72.0829 11.8736C72.0829 11.219 71.8748 10.6849 71.4584 10.2676C71.0421 9.85129 70.5168 9.64312 69.8844 9.64312C69.2519 9.64312 68.7292 9.85129 68.3182 10.2676C67.9072 10.684 67.7017 11.2199 67.7017 11.8736C67.7017 12.5274 67.9072 13.0624 68.3182 13.4796Z" fill="white" stroke="black" stroke-width="0.3"/>
<path d="M80.7364 7.91895H82.9191L80.0349 15.8418C79.6238 16.9712 79.0782 17.7915 78.3988 18.3035C77.7194 18.8155 76.8743 19.0449 75.8627 18.9927V17.0943C76.411 17.105 76.8459 16.9889 77.1675 16.7462C77.489 16.5035 77.745 16.1137 77.9346 15.5751L74.6917 7.91895H76.9221L78.9852 13.2357L80.7347 7.91895H80.7364Z" fill="white" stroke="black" stroke-width="0.3"/>
</svg>
