<svg width="92" height="20" viewBox="0 0 92 20" fill="none" xmlns="http://www.w3.org/2000/svg">
<path d="M18.1364 11.372C17.723 11.9764 17.1325 12.3278 16.4494 12.5472C16.2998 12.5955 16.1531 12.6486 16.0094 12.7057C15.101 13.0689 14.3244 13.622 13.7397 14.4468C13.2181 15.1841 12.9326 16.001 12.8588 16.8809C12.848 17.0039 12.8421 17.1289 12.8401 17.2539C12.8234 18.3071 12.3962 19.1191 11.4769 19.6398C11.222 19.7845 10.9189 19.8415 10.6374 19.938C10.5941 19.9528 10.5517 19.9665 10.5084 19.9813C10.4021 19.9941 10.2949 20 10.1846 20C10.0882 20 9.99367 19.9951 9.90017 19.9852C9.83914 19.9665 9.77713 19.9449 9.71414 19.935C8.55961 19.7549 7.65706 18.7923 7.50154 17.6368C7.49761 17.6093 7.49465 17.5817 7.4917 17.5541C7.48875 17.5266 7.48678 17.499 7.48481 17.4715C7.48284 17.4439 7.48087 17.4163 7.48087 17.3888C7.4415 16.2067 8.24761 15.0561 9.42084 14.7411C9.56454 14.7028 9.70627 14.6595 9.84406 14.6112C10.7673 14.2923 11.5665 13.7608 12.1649 12.9429C14.1482 10.2303 13.0301 6.59153 10.0153 5.43602C9.98186 5.42323 9.94839 5.41043 9.91493 5.39764C9.55075 5.26181 9.17969 5.13681 8.84111 4.95276C7.54879 4.24803 7.16886 2.65157 7.78796 1.44882C7.79682 1.4311 7.80666 1.41339 7.81651 1.39567C7.8234 1.38287 7.83028 1.37106 7.83717 1.35925C7.93953 1.18209 8.0606 1.01772 8.19839 0.868111C8.29977 0.760828 8.41099 0.660429 8.53402 0.567909C8.74367 0.410429 8.99072 0.302162 9.22399 0.175194C9.52221 0.0620048 9.84505 0 10.1836 0C10.5222 0 10.85 0.0629909 11.1492 0.177164C11.2132 0.214566 11.2781 0.249999 11.3441 0.281495C11.6945 0.452755 11.9838 0.665354 12.2122 0.916339C12.3893 1.11713 12.538 1.34449 12.6492 1.59153C12.6541 1.60138 12.658 1.6122 12.663 1.62205C12.788 1.91929 12.8618 2.25 12.8864 2.61319C12.8864 2.61516 12.8864 2.61713 12.8864 2.61909C12.9326 3.29232 13.0262 3.95275 13.2958 4.57972C13.788 5.72736 14.6088 6.55019 15.7417 7.05807C15.9947 7.17126 16.2594 7.25788 16.5202 7.35138C16.7132 7.42028 16.9031 7.4941 17.0842 7.58563C18.6866 8.39666 18.8972 10.252 18.1334 11.3701L18.1364 11.372Z" fill="#9141E5"/>
<path d="M9.45079 12.537C9.37894 12.5538 9.30808 12.5715 9.23721 12.5902C8.37205 12.8175 7.58071 13.1886 6.91831 13.8097C6.17717 14.5046 5.74803 15.3727 5.54232 16.3589C5.49213 16.6 5.45079 16.8431 5.40453 17.0853C5.35926 17.3244 5.30807 17.5626 5.23721 17.7949C5.21063 17.8835 5.17914 17.9691 5.14272 18.0518C5.14272 18.0528 5.14272 18.0538 5.14173 18.0548C4.7126 18.9376 3.81792 19.5518 2.77658 19.5784C2.75591 19.5784 2.73425 19.5794 2.7126 19.5794H2.70571C2.67421 19.5794 2.64272 19.5794 2.61122 19.5774C2.58563 19.5764 2.56004 19.5754 2.53445 19.5735C2.52854 19.5735 2.52363 19.5735 2.5187 19.5725C2.42815 19.5656 2.3376 19.5557 2.24803 19.54C1.91142 19.4829 1.58366 19.3609 1.28839 19.1709C0.562995 18.7053 0.155514 18.0439 0.0570883 17.1886C0.0501985 17.1286 0.0226356 17.0705 0.00393485 17.0114C0.00098209 16.9662 0 16.9209 0 16.8746C0 16.8284 0.00098209 16.7821 0.00393485 16.7359C0.0403522 16.5813 0.0728371 16.4248 0.113191 16.2713C0.384845 15.2467 1.03543 14.5931 2.06496 14.3441C2.27657 14.2929 2.48524 14.2359 2.68996 14.1699C3.30906 13.9711 3.89075 13.6955 4.40354 13.2742C5.40354 12.4524 5.99508 11.3943 6.16929 10.1059C6.18012 10.0242 6.18996 9.94156 6.19882 9.85987C6.23524 9.53113 6.2687 9.20338 6.40552 8.88842C6.85729 7.84904 7.81398 7.22306 8.94882 7.25455C10.186 7.28802 11.1939 8.10101 11.4695 9.28802C11.8169 10.7821 10.9478 12.1896 9.45079 12.539V12.537Z" fill="#9141E5"/>
<path d="M31.0483 9.75087C32.1261 10.3719 32.6654 11.3099 32.6654 12.5629C32.6654 13.6062 32.2964 14.4615 31.5582 15.1288C30.82 15.7971 29.9115 16.1308 28.8338 16.1308H23.6133V3.82666H28.4647C29.5198 3.82666 30.4066 4.15146 31.128 4.80205C31.8485 5.45264 32.2088 6.28138 32.2088 7.28926C32.2088 8.29713 31.8219 9.12883 31.0483 9.74989V9.75087ZM28.4647 6.09438H26.0395V8.80107H28.4647C28.8397 8.80107 29.1526 8.67213 29.4046 8.41426C29.6566 8.15638 29.7826 7.83453 29.7826 7.44772C29.7826 7.06091 29.6595 6.73906 29.4135 6.48119C29.1674 6.22331 28.8515 6.09438 28.4647 6.09438ZM28.8338 13.8631C29.2442 13.8631 29.5838 13.7253 29.8534 13.4497C30.1231 13.1741 30.258 12.8257 30.258 12.4034C30.258 11.9812 30.1231 11.6505 29.8534 11.3749C29.5838 11.0993 29.2442 10.9615 28.8338 10.9615H26.0395V13.8621H28.8338V13.8631Z" fill="#9141E5"/>
<path d="M33.7031 16.131V3.29932H35.9708V16.131H33.7031Z" fill="#9141E5"/>
<path d="M38.7296 6.28747C38.3546 6.28747 38.0288 6.14967 37.7542 5.87408C37.4786 5.59849 37.3408 5.27368 37.3408 4.89868C37.3408 4.52368 37.4786 4.19593 37.7542 3.91443C38.0298 3.63293 38.3546 3.49219 38.7296 3.49219C39.1046 3.49219 39.4471 3.63293 39.7227 3.91443C39.9983 4.19593 40.1361 4.52368 40.1361 4.89868C40.1361 5.27368 39.9983 5.59947 39.7227 5.87408C39.4471 6.14967 39.1164 6.28747 38.7296 6.28747ZM37.6046 16.131V7.34258H39.8723V16.131H37.6046Z" fill="#9141E5"/>
<path d="M46.3937 7.09619C47.3543 7.09619 48.1486 7.41903 48.7755 8.06273C49.4025 8.70741 49.7155 9.59816 49.7155 10.734V16.1306H47.4478V11.0155C47.4478 10.4299 47.2893 9.98104 46.9734 9.671C46.6574 9.36096 46.2352 9.20544 45.7076 9.20544C45.122 9.20544 44.6535 9.38753 44.3011 9.75072C43.9498 10.1139 43.7736 10.6592 43.7736 11.3856V16.1316H41.5059V7.34324H43.7736V8.32749C44.3238 7.50761 45.1978 7.09718 46.3927 7.09718L46.3937 7.09619Z" fill="#9141E5"/>
<path d="M57.8712 7.34273H60.1389V19.6469H57.8712V15.0947C57.2029 15.95 56.2541 16.3782 55.0237 16.3782C53.7934 16.3782 52.8298 15.9303 51.9913 15.0337C51.1537 14.137 50.7344 13.0386 50.7344 11.7384C50.7344 10.4382 51.1537 9.33879 51.9913 8.44312C52.8289 7.54646 53.8397 7.09863 55.0237 7.09863C56.2078 7.09863 57.2029 7.52678 57.8712 8.3821V7.3447V7.34273ZM53.696 13.5209C54.1586 13.9835 54.7422 14.2148 55.445 14.2148C56.1478 14.2148 56.7285 13.9835 57.1852 13.5209C57.6419 13.0583 57.8702 12.4638 57.8702 11.7364C57.8702 11.0091 57.6419 10.4156 57.1852 9.95198C56.7285 9.48938 56.1478 9.25808 55.445 9.25808C54.7422 9.25808 54.1586 9.48938 53.696 9.95198C53.2334 10.4146 53.0021 11.0101 53.0021 11.7364C53.0021 12.4628 53.2334 13.0573 53.696 13.5209Z" fill="#9141E5"/>
<path d="M66.8876 7.09621C68.0707 7.09621 69.0815 7.54405 69.9201 8.4407C70.7577 9.33735 71.177 10.4358 71.177 11.736C71.177 13.0362 70.7577 14.1356 69.9201 15.0312C69.0825 15.9279 68.0717 16.3757 66.8876 16.3757C65.7036 16.3757 64.7085 15.9486 64.0402 15.0923V19.6444H61.7725V7.3403H64.0402V8.37771C64.7085 7.52239 65.6573 7.09424 66.8876 7.09424V7.09621ZM64.7252 13.5204C65.1819 13.983 65.7626 14.2143 66.4654 14.2143C67.1681 14.2143 67.7508 13.983 68.2144 13.5204C68.677 13.0578 68.9083 12.4633 68.9083 11.736C68.9083 11.0086 68.677 10.4151 68.2144 9.95153C67.7518 9.48893 67.1681 9.25763 66.4654 9.25763C65.7626 9.25763 65.1819 9.48893 64.7252 9.95153C64.2685 10.4141 64.0402 11.0096 64.0402 11.736C64.0402 12.4624 64.2685 13.0568 64.7252 13.5204Z" fill="#9141E5"/>
<path d="M79.0157 7.34225H81.2834V16.1306H79.0157V15.0932C78.3356 15.9485 77.3809 16.3767 76.1506 16.3767C74.9202 16.3767 73.9734 15.9289 73.1358 15.0322C72.2982 14.1356 71.8789 13.0371 71.8789 11.7369C71.8789 10.4367 72.2982 9.33732 73.1358 8.44165C73.9734 7.545 74.9783 7.09717 76.1506 7.09717C77.3809 7.09717 78.3356 7.52532 79.0157 8.38063V7.34323V7.34225ZM74.8326 13.5204C75.2893 13.983 75.8701 14.2143 76.5728 14.2143C77.2756 14.2143 77.8582 13.983 78.3218 13.5204C78.7844 13.0578 79.0157 12.4633 79.0157 11.7359C79.0157 11.0086 78.7844 10.4151 78.3218 9.9515C77.8592 9.4889 77.2756 9.2576 76.5728 9.2576C75.8701 9.2576 75.2893 9.4889 74.8326 9.9515C74.376 10.4141 74.1476 11.0096 74.1476 11.7359C74.1476 12.4623 74.376 13.0568 74.8326 13.5204Z" fill="#9141E5"/>
<path d="M88.6296 7.34277H91.0548L87.8501 16.1459C87.3934 17.4008 86.7871 18.3123 86.0322 18.8812C85.2773 19.4501 84.3383 19.705 83.2143 19.6469V17.5377C83.8235 17.5495 84.3068 17.4205 84.6641 17.1508C85.0213 16.8812 85.3058 16.4481 85.5164 15.8497L81.9131 7.34277H84.3914L86.6838 13.2503L88.6277 7.34277H88.6296Z" fill="#9141E5"/>
</svg>
